<?xml version="1.0" encoding="UTF-8"?>
<svg width="100px" height="100px" viewBox="0 0 100 100" version="1.1" xmlns="http://www.w3.org/2000/svg" xmlns:xlink="http://www.w3.org/1999/xlink">
    <!-- Generator: Sketch 56.3 (81716) - https://sketch.com -->
    <title>Fill 1</title>
    <desc>Created with Sketch.</desc>
    <g id="v" stroke="none" stroke-width="1" fill="none" fill-rule="evenodd">
        <g id="product-page---photo---overview-copy-5" transform="translate(-670.000000, -409.000000)" fill="#D3D7DF">
            <g id="Group-16" transform="translate(470.000000, 409.000000)">
                <path d="M293.748281,38.4552886 L288.829654,35.080373 C287.729682,34.3303917 286.276593,34.358516 285.20787,35.1522462 L274.895628,42.8239294 L264.583385,35.1522462 C263.474038,34.3303917 261.961576,34.3303917 260.855354,35.1522462 L250.499363,42.8145546 L240.18712,35.1428714 C239.137147,34.361641 237.712182,34.3178921 236.615335,35.0334992 L229.646759,39.5833854 L229.646759,9.37789055 C229.646759,7.65293368 231.046724,6.25296868 232.771681,6.25296868 L277.498688,6.25296868 L277.498688,12.6590585 C277.504937,18.0964226 281.904827,22.5056874 287.342191,22.518187 L293.748281,22.518187 L293.748281,38.4552886 Z M283.748531,10.680983 L289.342141,16.2683433 L287.342191,16.2683433 C285.354741,16.2558436 283.751656,14.6433839 283.748531,12.6590585 L283.748531,10.680983 Z M299.957501,19.19952 C299.963751,19.2651434 299.998125,19.3276418 299.998125,19.3932652 L299.998125,44.3520162 C299.998125,44.9801255 299.807505,45.5957351 299.454389,46.1144721 C298.482538,47.5394365 296.538837,47.9050524 295.110747,46.9332017 L287.132822,41.4958376 L276.733082,49.2268943 C275.626859,50.0487488 274.108147,50.0487488 273.001925,49.2268943 L262.689683,41.5552111 L252.377441,49.2268943 C251.271218,50.0487488 249.755631,50.0487488 248.649409,49.2268943 L238.21217,41.4677133 L228.243669,47.9706757 C227.734307,48.3019175 227.140571,48.480038 226.531212,48.480038 C224.806255,48.4769131 223.409415,47.0769481 223.409415,45.3519912 L223.409415,9.37476563 C223.409415,4.19677008 227.606185,0 232.78418,0 L280.595485,0 C280.657984,0 280.714232,0.0374990625 280.776731,0.0374990625 C281.064223,0.0531236719 281.351716,0.109372266 281.626709,0.206244844 C281.707957,0.231244219 281.79233,0.259368516 281.873578,0.293742656 C282.223569,0.440613985 282.539187,0.653108672 282.811055,0.918727032 L299.070023,17.1839454 C299.332517,17.4495638 299.541886,17.758931 299.695008,18.0995475 C299.735632,18.1964201 299.770006,18.2932927 299.79813,18.3964151 C299.888753,18.6557836 299.941876,18.9245269 299.957501,19.19952 Z M268.773281,93.7501562 C270.501362,93.7501562 271.898203,92.3533162 271.898203,90.6252344 L271.879453,61.8353291 L262.929677,56.9792005 L252.345566,64.8508787 C251.239344,65.6758581 249.723757,65.6758581 248.617535,64.8508787 L238.305292,57.1760706 L227.99305,64.8508787 C226.886828,65.6758581 225.371241,65.6758581 224.265018,64.8508787 L213.902777,57.1448214 L206.249844,62.5853104 L206.249844,90.6252344 C206.249844,92.3533162 207.649809,93.7501562 209.374766,93.7501562 L268.773281,93.7501562 Z M276.513712,57.2260693 C277.519937,57.7729307 278.148046,58.8291543 278.148046,59.9760006 L278.148046,90.6252344 C278.148046,95.8032299 273.951276,100 268.773281,100 L209.374766,100 C204.19677,100 200,95.8032299 200,90.6252344 L200,60.9853504 C200,59.9728757 200.487488,59.0260243 201.312467,58.438539 L212.137197,50.7231069 C213.243419,49.9356266 214.727757,49.9543761 215.81523,50.7637309 L226.127472,58.438539 L236.458464,50.7637309 C237.564686,49.9418765 239.080273,49.9418765 240.186495,50.7637309 L250.498738,58.438539 L260.820354,50.7731057 C261.798455,50.0481238 263.107797,49.9543761 264.173396,50.5356116 L276.513712,57.2260693 Z" id="Fill-1"></path>
            </g>
        </g>
    </g>
</svg>